<svg
 xmlns="http://www.w3.org/2000/svg"
 xmlns:xlink="http://www.w3.org/1999/xlink"
 width="67px" height="19px">
<path fill-rule="evenodd"  fill="rgb(45, 40, 41)"
 d="M65.823,10.140 C65.683,9.118 65.377,8.262 64.905,7.572 C64.432,6.883 63.747,6.538 62.849,6.538 C62.384,6.538 62.000,6.670 61.698,6.933 C61.396,7.197 61.245,7.561 61.245,8.026 C61.245,8.552 61.423,9.005 61.780,9.385 C62.136,9.765 62.694,10.225 63.453,10.767 L64.127,11.255 C65.071,11.968 65.768,12.603 66.218,13.161 C66.667,13.718 66.892,14.415 66.892,15.252 C66.892,15.934 66.694,16.538 66.299,17.064 C65.904,17.591 65.373,17.994 64.707,18.272 C64.041,18.551 63.305,18.691 62.500,18.691 C61.648,18.691 60.920,18.528 60.316,18.203 C59.820,17.955 59.464,17.792 59.247,17.715 C59.092,17.668 58.957,17.719 58.840,17.866 C58.724,18.013 58.635,18.234 58.573,18.528 L58.085,18.528 C58.147,17.645 58.178,16.096 58.178,13.881 L58.666,13.881 C58.976,16.731 60.021,18.156 61.803,18.156 C62.252,18.156 62.635,18.021 62.953,17.750 C63.270,17.479 63.429,17.064 63.429,16.507 C63.429,16.073 63.333,15.686 63.139,15.345 C62.945,15.004 62.701,14.702 62.407,14.439 C62.113,14.175 61.671,13.811 61.083,13.346 C60.386,12.789 59.855,12.340 59.491,11.999 C59.127,11.658 58.817,11.255 58.562,10.791 C58.306,10.326 58.178,9.807 58.178,9.234 C58.178,8.243 58.565,7.460 59.340,6.887 C60.114,6.314 61.059,6.027 62.175,6.027 C62.763,6.027 63.305,6.101 63.801,6.248 C64.297,6.395 64.676,6.562 64.940,6.748 C65.094,6.856 65.234,6.910 65.358,6.910 C65.497,6.910 65.617,6.837 65.718,6.689 C65.819,6.542 65.884,6.329 65.916,6.051 L66.404,6.051 C66.342,6.841 66.311,8.204 66.311,10.140 L65.823,10.140 ZM48.512,12.278 C48.512,13.300 48.655,14.152 48.942,14.834 C49.229,15.515 49.600,16.011 50.057,16.321 C50.514,16.631 51.006,16.785 51.533,16.785 C52.803,16.785 53.825,16.166 54.600,14.927 L55.018,15.066 C54.708,16.073 54.155,16.929 53.357,17.633 C52.559,18.339 51.564,18.691 50.371,18.691 C48.729,18.691 47.424,18.168 46.456,17.122 C45.488,16.077 45.004,14.532 45.004,12.487 C45.004,10.396 45.523,8.796 46.560,7.689 C47.598,6.581 48.977,6.027 50.696,6.027 C53.609,6.027 55.065,7.747 55.065,11.186 L48.536,11.186 C48.520,11.418 48.512,11.782 48.512,12.278 ZM51.777,7.712 C51.506,6.914 51.099,6.515 50.557,6.515 C49.999,6.515 49.538,6.860 49.175,7.549 C48.810,8.239 48.582,9.304 48.489,10.744 L52.137,10.744 C52.168,9.521 52.048,8.510 51.777,7.712 ZM38.056,18.365 L38.056,17.877 C38.273,17.877 38.443,17.839 38.567,17.761 C38.691,17.684 38.753,17.575 38.753,17.436 C38.753,17.359 38.715,17.242 38.637,17.087 L36.337,12.928 C36.182,12.665 36.019,12.487 35.849,12.394 C35.678,12.301 35.462,12.239 35.198,12.208 L35.198,16.204 C35.198,16.840 35.299,17.277 35.500,17.517 C35.702,17.758 36.066,17.877 36.592,17.877 L36.592,18.365 C35.043,18.304 34.037,18.272 33.572,18.272 C33.045,18.272 31.976,18.304 30.365,18.365 L30.365,17.877 C30.907,17.877 31.291,17.758 31.515,17.517 C31.740,17.277 31.852,16.840 31.852,16.204 L31.852,2.960 C31.852,2.248 31.740,1.729 31.515,1.403 C31.291,1.078 30.907,0.915 30.365,0.915 L30.365,0.428 C30.861,0.474 31.341,0.497 31.806,0.497 C33.154,0.497 34.284,0.389 35.198,0.172 L35.198,11.766 C35.508,11.736 35.775,11.674 36.000,11.581 C36.224,11.488 36.422,11.348 36.592,11.162 L38.358,9.443 C38.870,8.932 39.125,8.459 39.125,8.026 C39.125,7.669 38.963,7.387 38.637,7.177 C38.312,6.968 37.878,6.849 37.336,6.817 L37.336,6.353 C38.188,6.399 39.094,6.422 40.055,6.422 C41.340,6.422 42.246,6.399 42.773,6.353 L42.773,6.817 C41.859,7.019 40.891,7.615 39.869,8.606 L38.382,10.140 L42.285,16.669 C42.533,17.041 42.734,17.316 42.889,17.494 C43.044,17.672 43.245,17.800 43.493,17.877 L43.493,18.365 C42.254,18.304 41.441,18.272 41.054,18.272 C40.543,18.272 39.543,18.304 38.056,18.365 ZM26.090,18.528 C25.238,18.528 24.642,18.358 24.301,18.017 C23.960,17.676 23.782,17.219 23.767,16.646 C22.992,17.901 21.853,18.528 20.351,18.528 C19.360,18.528 18.620,18.272 18.132,17.761 C17.644,17.250 17.400,16.576 17.400,15.740 C17.400,15.043 17.582,14.466 17.946,14.009 C18.310,13.552 18.751,13.199 19.271,12.951 C19.789,12.704 20.452,12.440 21.257,12.161 C22.109,11.867 22.733,11.600 23.128,11.360 C23.523,11.120 23.720,10.791 23.720,10.372 L23.720,8.560 C23.720,7.909 23.569,7.402 23.267,7.038 C22.965,6.674 22.496,6.492 21.861,6.492 C21.118,6.492 20.552,6.678 20.165,7.050 C20.599,7.205 20.936,7.437 21.176,7.747 C21.416,8.057 21.536,8.421 21.536,8.839 C21.536,9.366 21.358,9.784 21.002,10.094 C20.645,10.404 20.212,10.558 19.700,10.558 C19.158,10.558 18.740,10.388 18.446,10.047 C18.151,9.706 18.004,9.280 18.004,8.769 C18.004,8.336 18.109,7.967 18.318,7.665 C18.527,7.363 18.848,7.081 19.282,6.817 C19.700,6.570 20.215,6.376 20.827,6.236 C21.439,6.097 22.109,6.027 22.837,6.027 C23.596,6.027 24.255,6.105 24.812,6.260 C25.370,6.415 25.835,6.678 26.206,7.050 C26.547,7.391 26.776,7.809 26.892,8.304 C27.008,8.800 27.066,9.474 27.066,10.326 L27.066,16.646 C27.066,17.018 27.101,17.281 27.171,17.436 C27.240,17.591 27.376,17.668 27.577,17.668 C27.810,17.668 28.089,17.537 28.414,17.273 L28.646,17.668 C27.949,18.242 27.097,18.528 26.090,18.528 ZM23.720,11.325 C23.534,11.635 23.139,11.976 22.535,12.347 C21.931,12.735 21.474,13.122 21.164,13.509 C20.854,13.897 20.700,14.454 20.700,15.182 C20.700,15.817 20.831,16.286 21.095,16.588 C21.358,16.890 21.706,17.041 22.140,17.041 C22.744,17.041 23.271,16.724 23.720,16.088 L23.720,11.325 ZM9.036,18.133 C9.562,18.133 10.085,18.036 10.604,17.843 C11.123,17.649 11.560,17.366 11.917,16.994 C12.490,16.561 12.889,16.019 13.114,15.368 C13.338,14.717 13.512,13.765 13.636,12.510 L14.171,12.510 C14.171,15.314 14.202,17.266 14.264,18.365 L13.729,18.365 C13.683,17.870 13.617,17.517 13.532,17.308 C13.446,17.099 13.326,16.994 13.172,16.994 C13.047,16.994 12.885,17.057 12.684,17.180 C11.987,17.676 11.320,18.052 10.685,18.307 C10.050,18.563 9.283,18.691 8.385,18.691 C6.743,18.691 5.306,18.358 4.075,17.692 C2.843,17.026 1.887,16.061 1.205,14.799 C0.523,13.536 0.183,12.030 0.183,10.279 C0.183,8.576 0.531,7.065 1.229,5.748 C1.926,4.432 2.897,3.410 4.145,2.681 C5.391,1.953 6.813,1.589 8.408,1.589 C9.338,1.589 10.128,1.721 10.778,1.984 C11.429,2.248 12.064,2.620 12.684,3.100 C12.854,3.239 13.001,3.309 13.125,3.309 C13.435,3.309 13.636,2.844 13.729,1.915 L14.264,1.915 C14.202,2.968 14.171,4.842 14.171,7.538 L13.636,7.538 C13.497,6.391 13.311,5.516 13.079,4.912 C12.846,4.308 12.451,3.781 11.894,3.332 C11.506,2.960 11.057,2.678 10.546,2.484 C10.035,2.290 9.500,2.193 8.943,2.193 C7.378,2.193 6.216,2.957 5.457,4.482 C4.698,6.008 4.319,7.909 4.319,10.186 C4.319,12.448 4.714,14.338 5.504,15.856 C6.294,17.374 7.471,18.133 9.036,18.133 Z"/>
</svg>
